<mxfile host="65bd71144e">
    <diagram id="staQR-I7LmeANFBq-PIp" name="Page-1">
        <mxGraphModel dx="-69" dy="789" grid="1" gridSize="10" guides="1" tooltips="1" connect="1" arrows="1" fold="1" page="1" pageScale="1" pageWidth="850" pageHeight="1100" math="0" shadow="0">
            <root>
                <mxCell id="0"/>
                <mxCell id="1" parent="0"/>
                <mxCell id="2" value="" style="group;fontColor=#000000;" parent="1" vertex="1" connectable="0">
                    <mxGeometry x="920" y="50" width="860" height="680" as="geometry"/>
                </mxCell>
                <mxCell id="3" value="" style="rounded=1;whiteSpace=wrap;html=1;absoluteArcSize=1;arcSize=14;strokeWidth=2;fillColor=#f8cecc;fontColor=#000000;strokeColor=#B85450;" parent="2" vertex="1">
                    <mxGeometry width="860" height="680" as="geometry"/>
                </mxCell>
                <mxCell id="4" value="&lt;font&gt;&lt;span style=&quot;font-size: 30px;&quot;&gt;Condition Module&lt;/span&gt;&lt;/font&gt;" style="text;html=1;align=center;verticalAlign=middle;whiteSpace=wrap;rounded=0;fontColor=#000000;" parent="2" vertex="1">
                    <mxGeometry width="860" height="39" as="geometry"/>
                </mxCell>
                <mxCell id="5" value="" style="html=1;verticalLabelPosition=bottom;align=center;labelBackgroundColor=#ffffff;verticalAlign=top;strokeWidth=2;strokeColor=#000000;shadow=0;dashed=0;shape=mxgraph.ios7.icons.stopwatch;fillColor=none;fontColor=#000000;" parent="2" vertex="1">
                    <mxGeometry x="10" y="74.78999999999996" width="27" height="28.2" as="geometry"/>
                </mxCell>
                <mxCell id="6" value="" style="endArrow=classic;html=1;exitX=0;exitY=0.5;exitDx=0;exitDy=0;entryX=1;entryY=0.169;entryDx=0;entryDy=0;strokeWidth=6;endFill=1;entryPerimeter=0;strokeColor=#000000;fontColor=#000000;" parent="2" target="3" edge="1">
                    <mxGeometry width="50" height="50" relative="1" as="geometry">
                        <mxPoint y="117.99000000000001" as="sourcePoint"/>
                        <mxPoint x="310" y="117.99000000000001" as="targetPoint"/>
                    </mxGeometry>
                </mxCell>
                <mxCell id="7" value="" style="rounded=1;whiteSpace=wrap;html=1;absoluteArcSize=1;arcSize=14;strokeWidth=2;fillColor=#fa998e;fontColor=#000000;strokeColor=#000000;" parent="2" vertex="1">
                    <mxGeometry x="75" y="68.99000000000001" width="675" height="571.01" as="geometry"/>
                </mxCell>
                <mxCell id="8" value="" style="endArrow=classic;html=1;strokeWidth=6;entryX=0.923;entryY=0.999;entryDx=0;entryDy=0;entryPerimeter=0;exitX=0.491;exitY=1;exitDx=0;exitDy=0;exitPerimeter=0;strokeColor=#000000;fontColor=#000000;" parent="2" source="12" target="3" edge="1">
                    <mxGeometry width="50" height="50" relative="1" as="geometry">
                        <mxPoint x="240" y="210" as="sourcePoint"/>
                        <mxPoint x="290" y="160" as="targetPoint"/>
                    </mxGeometry>
                </mxCell>
                <mxCell id="9" value="" style="edgeStyle=segmentEdgeStyle;endArrow=classic;html=1;curved=0;rounded=0;endSize=8;startSize=8;strokeWidth=6;entryX=0.5;entryY=0;entryDx=0;entryDy=0;strokeColor=#000000;fontColor=#000000;" parent="2" target="11" edge="1">
                    <mxGeometry width="50" height="50" relative="1" as="geometry">
                        <mxPoint x="50" y="118.99000000000001" as="sourcePoint"/>
                        <mxPoint x="120" y="38.99000000000001" as="targetPoint"/>
                        <Array as="points">
                            <mxPoint x="50" y="50"/>
                            <mxPoint x="796" y="50"/>
                            <mxPoint x="796" y="90"/>
                        </Array>
                    </mxGeometry>
                </mxCell>
                <mxCell id="10" value="" style="group;fontColor=#000000;" parent="2" vertex="1" connectable="0">
                    <mxGeometry x="770" y="90" width="51" height="51" as="geometry"/>
                </mxCell>
                <mxCell id="11" value="" style="rhombus;whiteSpace=wrap;html=1;strokeColor=#000000;fillColor=#FFFFFF;strokeWidth=2;fontColor=#000000;" parent="10" vertex="1">
                    <mxGeometry width="51" height="51" as="geometry"/>
                </mxCell>
                <mxCell id="12" value="" style="html=1;verticalLabelPosition=bottom;align=center;labelBackgroundColor=#ffffff;verticalAlign=top;strokeWidth=2;strokeColor=#000000;shadow=0;dashed=0;shape=mxgraph.ios7.icons.clock;fillColor=none;fontColor=#000000;" parent="10" vertex="1">
                    <mxGeometry x="10.5" y="10.5" width="30" height="30" as="geometry"/>
                </mxCell>
                <mxCell id="13" value="" style="rhombus;whiteSpace=wrap;html=1;strokeColor=#000000;strokeWidth=2;fontSize=20;fillColor=#FFFFFF;fontColor=#000000;" parent="2" vertex="1">
                    <mxGeometry x="265" y="314.49" width="80" height="80" as="geometry"/>
                </mxCell>
                <mxCell id="14" value="" style="endArrow=none;html=1;strokeWidth=6;fontSize=20;exitX=0;exitY=0.5;exitDx=0;exitDy=0;startArrow=none;strokeColor=#000000;fontColor=#000000;" parent="2" source="46" target="13" edge="1">
                    <mxGeometry width="50" height="50" relative="1" as="geometry">
                        <mxPoint x="180" y="160" as="sourcePoint"/>
                        <mxPoint x="230" y="110" as="targetPoint"/>
                    </mxGeometry>
                </mxCell>
                <mxCell id="15" value="" style="edgeStyle=segmentEdgeStyle;endArrow=classic;html=1;curved=0;rounded=0;endSize=8;startSize=8;strokeWidth=6;fontSize=20;exitX=0.5;exitY=0;exitDx=0;exitDy=0;entryX=0;entryY=0.5;entryDx=0;entryDy=0;strokeColor=#000000;fontColor=#000000;" parent="2" source="13" target="20" edge="1">
                    <mxGeometry width="50" height="50" relative="1" as="geometry">
                        <mxPoint x="290" y="210" as="sourcePoint"/>
                        <mxPoint x="370" y="210" as="targetPoint"/>
                        <Array as="points">
                            <mxPoint x="305" y="210"/>
                        </Array>
                    </mxGeometry>
                </mxCell>
                <mxCell id="16" value="" style="edgeStyle=segmentEdgeStyle;endArrow=classic;html=1;curved=0;rounded=0;endSize=8;startSize=8;strokeWidth=6;fontSize=20;exitX=0.5;exitY=1;exitDx=0;exitDy=0;entryX=0;entryY=0.5;entryDx=0;entryDy=0;strokeColor=#000000;fontColor=#000000;" parent="2" source="13" target="33" edge="1">
                    <mxGeometry width="50" height="50" relative="1" as="geometry">
                        <mxPoint x="270" y="540" as="sourcePoint"/>
                        <mxPoint x="370" y="494.4950000000001" as="targetPoint"/>
                        <Array as="points">
                            <mxPoint x="305" y="490"/>
                        </Array>
                    </mxGeometry>
                </mxCell>
                <mxCell id="17" value="" style="endArrow=classic;html=1;strokeWidth=6;fontSize=20;exitX=1;exitY=0.5;exitDx=0;exitDy=0;strokeColor=#000000;fontColor=#000000;" parent="2" source="20" edge="1">
                    <mxGeometry width="50" height="50" relative="1" as="geometry">
                        <mxPoint x="680.0000000000005" y="214.49500000000012" as="sourcePoint"/>
                        <mxPoint x="750" y="210" as="targetPoint"/>
                    </mxGeometry>
                </mxCell>
                <mxCell id="18" value="" style="endArrow=classic;html=1;strokeWidth=6;fontSize=20;exitX=1;exitY=0.5;exitDx=0;exitDy=0;strokeColor=#000000;fontColor=#000000;" parent="2" source="33" edge="1">
                    <mxGeometry width="50" height="50" relative="1" as="geometry">
                        <mxPoint x="680.0000000000005" y="494.03099199999997" as="sourcePoint"/>
                        <mxPoint x="750" y="490" as="targetPoint"/>
                    </mxGeometry>
                </mxCell>
                <mxCell id="19" value="" style="group;fontColor=#000000;" parent="2" vertex="1" connectable="0">
                    <mxGeometry x="370" y="90" width="310" height="240" as="geometry"/>
                </mxCell>
                <mxCell id="20" value="" style="rounded=1;whiteSpace=wrap;html=1;absoluteArcSize=1;arcSize=14;strokeWidth=2;fillColor=#f8cecc;fontColor=#000000;strokeColor=#000000;" parent="19" vertex="1">
                    <mxGeometry width="310" height="240" as="geometry"/>
                </mxCell>
                <mxCell id="21" value="&lt;font&gt;&lt;span style=&quot;font-size: 30px;&quot;&gt;Sub-Module&lt;/span&gt;&lt;/font&gt;" style="text;html=1;align=center;verticalAlign=middle;whiteSpace=wrap;rounded=0;fontColor=#000000;" parent="19" vertex="1">
                    <mxGeometry width="310" height="39" as="geometry"/>
                </mxCell>
                <mxCell id="22" value="" style="html=1;verticalLabelPosition=bottom;align=center;labelBackgroundColor=#ffffff;verticalAlign=top;strokeWidth=2;strokeColor=#000000;shadow=0;dashed=0;shape=mxgraph.ios7.icons.stopwatch;fillColor=none;fontColor=#000000;" parent="19" vertex="1">
                    <mxGeometry x="10" y="74.79000000000002" width="27" height="28.2" as="geometry"/>
                </mxCell>
                <mxCell id="23" value="" style="endArrow=classic;html=1;exitX=0;exitY=0.5;exitDx=0;exitDy=0;entryX=1;entryY=0.5;entryDx=0;entryDy=0;strokeWidth=6;endFill=1;strokeColor=#000000;fontColor=#000000;" parent="19" source="20" target="20" edge="1">
                    <mxGeometry width="50" height="50" relative="1" as="geometry">
                        <mxPoint y="117.99000000000001" as="sourcePoint"/>
                        <mxPoint x="310" y="117.99000000000001" as="targetPoint"/>
                    </mxGeometry>
                </mxCell>
                <mxCell id="24" value="" style="rounded=1;whiteSpace=wrap;html=1;absoluteArcSize=1;arcSize=14;strokeWidth=2;fillColor=#fa998e;fontColor=#000000;strokeColor=#000000;" parent="19" vertex="1">
                    <mxGeometry x="75" y="68.99000000000001" width="130" height="140" as="geometry"/>
                </mxCell>
                <mxCell id="25" value="" style="endArrow=classic;html=1;strokeWidth=6;entryX=0.822;entryY=1;entryDx=0;entryDy=0;entryPerimeter=0;exitX=0.491;exitY=1;exitDx=0;exitDy=0;exitPerimeter=0;strokeColor=#000000;fontColor=#000000;" parent="19" source="29" target="20" edge="1">
                    <mxGeometry width="50" height="50" relative="1" as="geometry">
                        <mxPoint x="240" y="210" as="sourcePoint"/>
                        <mxPoint x="290" y="160" as="targetPoint"/>
                    </mxGeometry>
                </mxCell>
                <mxCell id="26" value="" style="edgeStyle=segmentEdgeStyle;endArrow=classic;html=1;curved=0;rounded=0;endSize=8;startSize=8;strokeWidth=6;entryX=0.5;entryY=0;entryDx=0;entryDy=0;strokeColor=#000000;fontColor=#000000;" parent="19" target="28" edge="1">
                    <mxGeometry width="50" height="50" relative="1" as="geometry">
                        <mxPoint x="50" y="118.99000000000001" as="sourcePoint"/>
                        <mxPoint x="120" y="38.99000000000001" as="targetPoint"/>
                        <Array as="points">
                            <mxPoint x="50" y="48.99000000000001"/>
                            <mxPoint x="255" y="48.99000000000001"/>
                        </Array>
                    </mxGeometry>
                </mxCell>
                <mxCell id="27" value="" style="group;fontColor=#000000;" parent="19" vertex="1" connectable="0">
                    <mxGeometry x="229.5" y="94.49000000000001" width="51" height="51" as="geometry"/>
                </mxCell>
                <mxCell id="28" value="" style="rhombus;whiteSpace=wrap;html=1;strokeColor=#000000;fillColor=#FFFFFF;strokeWidth=2;fontColor=#000000;" parent="27" vertex="1">
                    <mxGeometry width="51" height="51" as="geometry"/>
                </mxCell>
                <mxCell id="29" value="" style="html=1;verticalLabelPosition=bottom;align=center;labelBackgroundColor=#ffffff;verticalAlign=top;strokeWidth=2;strokeColor=#000000;shadow=0;dashed=0;shape=mxgraph.ios7.icons.clock;fillColor=none;fontColor=#000000;" parent="27" vertex="1">
                    <mxGeometry x="10.5" y="10.5" width="30" height="30" as="geometry"/>
                </mxCell>
                <mxCell id="30" value="" style="verticalLabelPosition=bottom;html=1;verticalAlign=top;align=center;strokeColor=none;fillColor=#000000;shape=mxgraph.azure.code_file;pointerEvents=1;strokeWidth=2;fontColor=#000000;" parent="19" vertex="1">
                    <mxGeometry x="102" y="120" width="76" height="80" as="geometry"/>
                </mxCell>
                <mxCell id="31" value="&lt;font style=&quot;font-size: 20px;&quot;&gt;Run code&lt;/font&gt;" style="text;html=1;align=center;verticalAlign=middle;whiteSpace=wrap;rounded=0;fontColor=#000000;" parent="19" vertex="1">
                    <mxGeometry x="77.5" y="74.78999999999999" width="125" height="39" as="geometry"/>
                </mxCell>
                <mxCell id="32" value="" style="group;fontColor=#000000;" parent="2" vertex="1" connectable="0">
                    <mxGeometry x="370" y="370" width="310" height="240" as="geometry"/>
                </mxCell>
                <mxCell id="33" value="" style="rounded=1;whiteSpace=wrap;html=1;absoluteArcSize=1;arcSize=14;strokeWidth=2;fillColor=#f8cecc;fontColor=#000000;strokeColor=#000000;" parent="32" vertex="1">
                    <mxGeometry width="310" height="240" as="geometry"/>
                </mxCell>
                <mxCell id="34" value="&lt;font&gt;&lt;span style=&quot;font-size: 30px;&quot;&gt;Sub-Module&lt;/span&gt;&lt;/font&gt;" style="text;html=1;align=center;verticalAlign=middle;whiteSpace=wrap;rounded=0;fontColor=#000000;" parent="32" vertex="1">
                    <mxGeometry width="310" height="39" as="geometry"/>
                </mxCell>
                <mxCell id="35" value="" style="html=1;verticalLabelPosition=bottom;align=center;labelBackgroundColor=#ffffff;verticalAlign=top;strokeWidth=2;strokeColor=#000000;shadow=0;dashed=0;shape=mxgraph.ios7.icons.stopwatch;fillColor=none;fontColor=#000000;" parent="32" vertex="1">
                    <mxGeometry x="10" y="74.79000000000002" width="27" height="28.2" as="geometry"/>
                </mxCell>
                <mxCell id="36" value="" style="endArrow=classic;html=1;exitX=0;exitY=0.5;exitDx=0;exitDy=0;entryX=1;entryY=0.5;entryDx=0;entryDy=0;strokeWidth=6;endFill=1;strokeColor=#000000;fontColor=#000000;" parent="32" source="33" target="33" edge="1">
                    <mxGeometry width="50" height="50" relative="1" as="geometry">
                        <mxPoint y="117.99000000000001" as="sourcePoint"/>
                        <mxPoint x="310" y="117.99000000000001" as="targetPoint"/>
                    </mxGeometry>
                </mxCell>
                <mxCell id="37" value="" style="rounded=1;whiteSpace=wrap;html=1;absoluteArcSize=1;arcSize=14;strokeWidth=2;fillColor=#fa998e;fontColor=#000000;strokeColor=#000000;" parent="32" vertex="1">
                    <mxGeometry x="75" y="68.99000000000001" width="130" height="140" as="geometry"/>
                </mxCell>
                <mxCell id="38" value="" style="endArrow=classic;html=1;strokeWidth=6;entryX=0.822;entryY=1;entryDx=0;entryDy=0;entryPerimeter=0;exitX=0.491;exitY=1;exitDx=0;exitDy=0;exitPerimeter=0;strokeColor=#000000;fontColor=#000000;" parent="32" source="42" target="33" edge="1">
                    <mxGeometry width="50" height="50" relative="1" as="geometry">
                        <mxPoint x="240" y="210" as="sourcePoint"/>
                        <mxPoint x="290" y="160" as="targetPoint"/>
                    </mxGeometry>
                </mxCell>
                <mxCell id="39" value="" style="edgeStyle=segmentEdgeStyle;endArrow=classic;html=1;curved=0;rounded=0;endSize=8;startSize=8;strokeWidth=6;entryX=0.5;entryY=0;entryDx=0;entryDy=0;strokeColor=#000000;fontColor=#000000;" parent="32" target="41" edge="1">
                    <mxGeometry width="50" height="50" relative="1" as="geometry">
                        <mxPoint x="50" y="118.99000000000001" as="sourcePoint"/>
                        <mxPoint x="120" y="38.99000000000001" as="targetPoint"/>
                        <Array as="points">
                            <mxPoint x="50" y="48.99000000000001"/>
                            <mxPoint x="255" y="48.99000000000001"/>
                        </Array>
                    </mxGeometry>
                </mxCell>
                <mxCell id="40" value="" style="group;fontColor=#000000;" parent="32" vertex="1" connectable="0">
                    <mxGeometry x="229.5" y="94.49000000000001" width="51" height="51" as="geometry"/>
                </mxCell>
                <mxCell id="41" value="" style="rhombus;whiteSpace=wrap;html=1;strokeColor=#000000;fillColor=#FFFFFF;strokeWidth=2;fontColor=#000000;" parent="40" vertex="1">
                    <mxGeometry width="51" height="51" as="geometry"/>
                </mxCell>
                <mxCell id="42" value="" style="html=1;verticalLabelPosition=bottom;align=center;labelBackgroundColor=#ffffff;verticalAlign=top;strokeWidth=2;strokeColor=#000000;shadow=0;dashed=0;shape=mxgraph.ios7.icons.clock;fillColor=none;fontColor=#000000;" parent="40" vertex="1">
                    <mxGeometry x="10.5" y="10.5" width="30" height="30" as="geometry"/>
                </mxCell>
                <mxCell id="43" value="" style="verticalLabelPosition=bottom;html=1;verticalAlign=top;align=center;strokeColor=none;fillColor=#000000;shape=mxgraph.azure.code_file;pointerEvents=1;strokeWidth=2;fontColor=#000000;" parent="32" vertex="1">
                    <mxGeometry x="102" y="120" width="76" height="80" as="geometry"/>
                </mxCell>
                <mxCell id="44" value="&lt;font style=&quot;font-size: 20px;&quot;&gt;Run code&lt;/font&gt;" style="text;html=1;align=center;verticalAlign=middle;whiteSpace=wrap;rounded=0;fontColor=#000000;" parent="32" vertex="1">
                    <mxGeometry x="77.5" y="74.78999999999999" width="125" height="39" as="geometry"/>
                </mxCell>
                <mxCell id="45" value="" style="endArrow=none;html=1;strokeWidth=6;fontSize=20;exitX=0;exitY=0.5;exitDx=0;exitDy=0;strokeColor=#000000;fontColor=#000000;" parent="2" source="7" target="46" edge="1">
                    <mxGeometry width="50" height="50" relative="1" as="geometry">
                        <mxPoint x="75" y="354.4949999999999" as="sourcePoint"/>
                        <mxPoint x="265.0008695463141" y="354.49086954631434" as="targetPoint"/>
                    </mxGeometry>
                </mxCell>
                <mxCell id="46" value="" style="rounded=1;whiteSpace=wrap;html=1;absoluteArcSize=1;arcSize=14;strokeWidth=2;fillColor=#f8cecc;fontColor=#000000;strokeColor=#000000;" parent="2" vertex="1">
                    <mxGeometry x="110" y="284.49" width="130" height="140" as="geometry"/>
                </mxCell>
                <mxCell id="47" value="" style="verticalLabelPosition=bottom;html=1;verticalAlign=top;align=center;strokeColor=none;fillColor=#000000;shape=mxgraph.azure.code_file;pointerEvents=1;strokeWidth=2;fontColor=#000000;" parent="2" vertex="1">
                    <mxGeometry x="137" y="339" width="76" height="80" as="geometry"/>
                </mxCell>
                <mxCell id="48" value="&lt;font style=&quot;font-size: 20px;&quot;&gt;Condition code&lt;/font&gt;" style="text;html=1;align=center;verticalAlign=middle;whiteSpace=wrap;rounded=0;fontColor=#000000;" parent="2" vertex="1">
                    <mxGeometry x="112.5" y="290" width="125" height="39" as="geometry"/>
                </mxCell>
            </root>
        </mxGraphModel>
    </diagram>
</mxfile>